<svg id="svg" version="1.1" xmlns="http://www.w3.org/2000/svg" xmlns:xlink="http://www.w3.org/1999/xlink" width="400" height="400" viewBox="0, 0, 400,400"><g id="svgg"><path id="path0" d="M197.200 5.600 C 197.200 5.820,196.390 6.000,195.400 6.000 C 194.410 6.000,193.600 6.180,193.600 6.400 C 193.600 6.620,193.285 6.797,192.900 6.794 C 192.302 6.789,192.287 6.731,192.800 6.400 C 193.161 6.167,193.210 6.010,192.924 6.006 C 192.662 6.003,192.336 6.180,192.200 6.400 C 192.064 6.620,191.243 6.800,190.376 6.800 C 189.385 6.800,188.798 6.986,188.794 7.300 C 188.790 7.633,188.658 7.600,188.400 7.200 C 188.142 6.800,188.010 6.767,188.006 7.100 C 188.002 7.425,187.370 7.600,186.200 7.600 C 185.210 7.600,184.400 7.780,184.400 8.000 C 184.400 8.220,184.055 8.400,183.633 8.400 C 183.212 8.400,182.775 8.625,182.664 8.900 C 182.511 9.276,182.356 9.252,182.037 8.800 C 181.686 8.304,181.611 8.298,181.606 8.767 C 181.603 9.078,181.482 9.215,181.337 9.070 C 181.192 8.925,180.832 9.007,180.537 9.252 C 180.191 9.540,180.000 9.552,180.000 9.286 C 180.000 9.008,179.548 9.014,178.600 9.305 C 177.830 9.541,177.200 9.884,177.200 10.067 C 177.200 10.250,176.469 10.400,175.576 10.400 C 174.578 10.400,174.050 10.557,174.204 10.807 C 174.342 11.030,174.651 11.092,174.889 10.945 C 175.144 10.787,175.209 10.862,175.046 11.125 C 174.884 11.388,174.279 11.476,173.584 11.337 C 172.707 11.161,172.400 11.250,172.400 11.681 C 172.400 12.093,172.066 12.212,171.247 12.092 C 170.613 11.999,169.973 12.120,169.824 12.362 C 169.675 12.603,169.113 12.800,168.576 12.800 C 168.039 12.800,167.600 12.980,167.600 13.200 C 167.600 13.420,167.240 13.600,166.800 13.600 C 166.360 13.600,166.000 13.780,166.000 14.000 C 166.000 14.220,165.668 14.400,165.261 14.400 C 164.217 14.400,162.083 15.528,161.617 16.327 C 161.329 16.820,161.221 16.849,161.212 16.438 C 161.202 15.991,161.051 16.011,160.468 16.539 C 160.065 16.903,159.615 17.081,159.468 16.934 C 159.320 16.787,159.200 16.877,159.200 17.133 C 159.200 17.390,158.840 17.600,158.400 17.600 C 157.960 17.600,157.600 17.758,157.600 17.951 C 157.600 18.145,157.060 18.527,156.400 18.800 C 155.740 19.073,155.200 19.455,155.200 19.649 C 155.200 19.842,154.840 20.000,154.400 20.000 C 153.960 20.000,153.600 20.180,153.600 20.400 C 153.600 20.620,153.240 20.800,152.800 20.800 C 152.342 20.800,152.000 21.067,152.000 21.424 C 152.000 21.767,151.820 21.936,151.600 21.800 C 151.380 21.664,151.200 21.743,151.200 21.976 C 151.200 22.209,150.945 22.400,150.633 22.400 C 150.322 22.400,149.976 22.625,149.865 22.900 C 149.704 23.300,149.657 23.300,149.632 22.900 C 149.593 22.292,145.600 22.193,145.600 22.800 C 145.600 23.020,145.319 23.200,144.976 23.200 C 144.633 23.200,144.464 23.020,144.600 22.800 C 144.736 22.580,144.567 22.400,144.224 22.400 C 143.881 22.400,143.600 22.580,143.600 22.800 C 143.600 23.035,142.209 23.200,140.226 23.200 C 138.370 23.200,136.380 23.379,135.803 23.599 C 135.106 23.864,134.837 23.864,135.001 23.599 C 135.136 23.379,134.967 23.200,134.624 23.200 C 134.281 23.200,134.000 23.380,134.000 23.600 C 134.000 23.820,133.089 24.000,131.976 24.000 C 130.729 24.000,130.048 24.153,130.200 24.400 C 130.336 24.620,130.257 24.800,130.024 24.800 C 129.791 24.800,129.600 24.620,129.600 24.400 C 129.600 24.180,129.330 24.000,129.000 24.000 C 128.670 24.000,128.400 24.180,128.400 24.400 C 128.400 24.620,127.421 24.800,126.224 24.800 C 125.027 24.800,123.925 24.997,123.777 25.238 C 123.628 25.478,123.034 25.585,122.457 25.475 C 121.880 25.365,121.106 25.436,120.736 25.634 C 120.366 25.832,119.374 26.104,118.532 26.237 C 117.689 26.371,116.885 26.665,116.745 26.891 C 116.604 27.117,116.279 27.173,116.022 27.014 C 115.436 26.652,111.959 27.646,111.730 28.241 C 111.636 28.483,111.140 28.601,110.627 28.503 C 110.114 28.405,109.572 28.522,109.423 28.762 C 109.275 29.003,108.724 29.200,108.200 29.200 C 107.676 29.200,107.136 29.380,107.000 29.600 C 106.864 29.820,106.403 30.000,105.976 30.000 C 105.549 30.000,105.200 30.180,105.200 30.400 C 105.200 30.620,104.840 30.800,104.400 30.800 C 103.960 30.800,103.600 30.980,103.600 31.200 C 103.600 31.420,103.161 31.600,102.624 31.600 C 102.087 31.600,101.536 31.780,101.400 32.000 C 101.264 32.220,100.803 32.400,100.376 32.400 C 99.949 32.400,99.600 32.580,99.600 32.800 C 99.600 33.020,99.240 33.200,98.800 33.200 C 98.360 33.200,98.000 33.380,98.000 33.600 C 98.000 33.820,97.640 34.000,97.200 34.000 C 96.760 34.000,96.400 34.180,96.400 34.400 C 96.400 34.620,96.124 34.800,95.787 34.800 C 95.451 34.800,95.076 35.059,94.954 35.375 C 94.833 35.691,94.479 35.852,94.167 35.732 C 93.855 35.612,93.600 35.714,93.600 35.957 C 93.600 36.201,93.319 36.400,92.976 36.400 C 92.633 36.400,92.464 36.580,92.600 36.800 C 92.736 37.020,92.477 37.200,92.024 37.200 C 91.571 37.200,91.200 37.380,91.200 37.600 C 91.200 37.820,90.880 38.000,90.488 38.000 C 90.097 38.000,89.517 38.360,89.200 38.800 C 88.883 39.240,88.303 39.600,87.912 39.600 C 87.520 39.600,87.200 39.780,87.200 40.000 C 87.200 40.220,86.880 40.400,86.488 40.400 C 86.097 40.400,85.517 40.760,85.200 41.200 C 84.883 41.640,84.297 42.000,83.899 42.000 C 83.501 42.000,83.074 42.262,82.952 42.582 C 82.829 42.902,81.935 43.548,80.964 44.017 C 79.994 44.487,79.200 45.035,79.200 45.236 C 79.200 45.436,78.930 45.600,78.600 45.600 C 78.270 45.600,78.000 45.791,78.000 46.024 C 78.000 46.257,78.208 46.319,78.462 46.162 C 78.741 45.989,78.815 46.052,78.649 46.321 C 78.498 46.565,78.110 46.664,77.787 46.540 C 77.464 46.416,77.200 46.514,77.200 46.757 C 77.200 47.001,76.919 47.200,76.576 47.200 C 76.233 47.200,76.056 47.367,76.182 47.571 C 76.308 47.775,76.046 48.058,75.600 48.200 C 75.153 48.342,74.909 48.652,75.056 48.891 C 75.217 49.150,75.137 49.208,74.856 49.035 C 74.580 48.864,73.751 49.410,72.826 50.373 C 71.966 51.268,71.056 52.000,70.803 52.000 C 70.151 52.000,69.312 52.921,69.138 53.828 C 69.056 54.253,68.722 54.600,68.395 54.600 C 68.068 54.600,66.882 55.500,65.760 56.600 C 64.638 57.700,62.928 59.349,61.960 60.264 C 59.806 62.300,56.255 66.268,56.048 66.871 C 55.964 67.114,54.299 68.915,52.348 70.874 C 50.397 72.833,48.800 74.568,48.800 74.729 C 48.800 74.891,48.440 75.283,48.000 75.600 C 47.560 75.917,47.186 76.542,47.168 76.988 C 47.151 77.435,47.045 77.570,46.932 77.290 C 46.799 76.960,46.165 77.385,45.140 78.490 C 43.457 80.304,42.373 81.911,43.160 81.425 C 43.402 81.275,43.600 81.343,43.600 81.576 C 43.600 81.809,43.270 82.000,42.868 82.000 C 42.465 82.000,41.894 82.450,41.600 83.000 C 41.306 83.550,40.915 84.000,40.732 84.000 C 40.550 84.000,40.400 84.300,40.400 84.667 C 40.400 85.033,40.291 85.224,40.158 85.091 C 39.805 84.738,38.000 86.654,38.000 87.382 C 38.000 87.722,37.706 88.000,37.347 88.000 C 36.988 88.000,36.358 88.388,35.947 88.861 C 35.079 89.862,34.994 90.169,35.700 89.753 C 35.975 89.591,35.480 90.182,34.600 91.066 C 33.720 91.951,32.865 92.602,32.700 92.513 C 32.535 92.425,32.386 92.768,32.368 93.276 C 32.351 93.784,32.247 93.978,32.137 93.706 C 32.008 93.388,31.594 93.621,30.969 94.364 C 29.935 95.592,29.704 96.230,30.462 95.762 C 30.741 95.589,30.815 95.652,30.649 95.921 C 30.498 96.165,30.127 96.270,29.826 96.155 C 29.214 95.920,26.654 99.320,27.104 99.770 C 27.253 99.920,27.066 99.924,26.688 99.778 C 26.310 99.633,26.000 99.671,26.000 99.861 C 26.000 100.052,25.561 100.682,25.024 101.261 C 24.487 101.840,24.157 102.423,24.290 102.557 C 24.424 102.691,24.315 102.800,24.048 102.800 C 23.434 102.800,21.600 104.613,21.600 105.221 C 21.600 105.473,21.060 106.183,20.400 106.800 C 19.740 107.417,19.200 108.129,19.200 108.384 C 19.200 108.639,19.046 108.752,18.858 108.636 C 18.670 108.520,18.117 108.850,17.629 109.369 C 17.141 109.889,16.890 110.394,17.071 110.491 C 17.252 110.589,17.179 110.615,16.908 110.550 C 16.638 110.485,15.918 111.098,15.308 111.912 C 14.699 112.726,13.171 114.474,11.914 115.796 C 8.955 118.907,7.601 120.519,7.600 120.931 C 7.600 121.114,6.888 121.947,6.018 122.783 C 5.148 123.619,4.548 124.415,4.685 124.551 C 4.821 124.688,4.710 124.800,4.438 124.800 C 3.799 124.800,2.800 125.799,2.800 126.438 C 2.800 126.710,2.689 126.822,2.552 126.686 C 2.299 126.432,1.200 127.337,1.200 127.800 C 1.200 127.941,0.910 128.347,0.556 128.702 C -0.112 129.370,0.019 132.693,0.732 133.178 C 0.912 133.300,1.179 133.726,1.326 134.125 C 1.474 134.524,1.763 134.746,1.970 134.619 C 2.176 134.491,2.475 134.598,2.634 134.855 C 2.815 135.148,2.750 135.216,2.462 135.038 C 2.208 134.881,2.000 134.943,2.000 135.176 C 2.000 135.409,2.281 135.600,2.624 135.600 C 2.967 135.600,3.136 135.780,3.000 136.000 C 2.864 136.220,2.943 136.400,3.176 136.400 C 3.409 136.400,3.600 136.643,3.600 136.941 C 3.600 137.238,4.140 138.046,4.800 138.737 C 5.460 139.428,6.000 140.164,6.000 140.374 C 6.000 140.583,6.315 140.990,6.700 141.277 C 7.085 141.565,7.655 142.295,7.968 142.900 C 8.280 143.505,8.695 144.000,8.891 144.000 C 9.087 144.000,9.148 144.161,9.026 144.358 C 8.904 144.555,9.074 144.819,9.402 144.946 C 9.731 145.072,10.000 145.442,10.000 145.769 C 10.000 146.096,10.450 146.814,11.000 147.364 C 11.550 147.914,12.000 148.525,12.000 148.722 C 12.000 148.920,12.540 149.646,13.200 150.337 C 13.860 151.028,14.400 151.825,14.400 152.108 C 14.400 152.391,14.760 152.883,15.200 153.200 C 15.640 153.517,16.000 154.007,16.000 154.288 C 16.000 154.570,16.180 154.800,16.400 154.800 C 16.620 154.800,16.800 155.030,16.800 155.312 C 16.800 155.593,17.160 156.083,17.600 156.400 C 18.040 156.717,18.400 157.135,18.400 157.328 C 18.400 157.521,18.940 158.183,19.600 158.800 C 20.260 159.417,20.803 160.254,20.806 160.660 C 20.811 161.284,20.873 161.306,21.200 160.800 C 21.514 160.315,21.589 160.372,21.594 161.100 C 21.597 161.595,21.780 162.000,22.000 162.000 C 22.220 162.000,22.400 162.276,22.400 162.613 C 22.400 162.950,22.805 163.389,23.300 163.588 C 23.795 163.787,23.951 163.961,23.646 163.975 C 23.330 163.989,23.674 164.533,24.446 165.240 C 25.191 165.922,25.575 166.362,25.300 166.217 C 24.501 165.795,24.723 166.568,25.579 167.185 C 26.007 167.493,26.269 167.888,26.162 168.061 C 26.055 168.235,26.425 168.491,26.984 168.632 C 27.543 168.772,28.000 169.058,28.000 169.267 C 28.000 169.476,27.820 169.536,27.600 169.400 C 26.772 168.888,27.241 170.041,28.200 170.875 C 28.750 171.353,29.200 171.972,29.200 172.249 C 29.200 172.527,29.562 173.008,30.005 173.319 C 30.753 173.842,30.811 174.331,30.823 180.141 C 30.831 183.841,30.992 186.400,31.218 186.400 C 31.428 186.400,31.600 187.390,31.600 188.600 C 31.600 189.810,31.780 190.800,32.000 190.800 C 32.220 190.800,32.400 191.520,32.400 192.400 C 32.400 193.280,32.580 194.000,32.800 194.000 C 33.020 194.000,33.200 194.540,33.200 195.200 C 33.200 195.860,33.380 196.400,33.600 196.400 C 33.820 196.400,34.000 196.940,34.000 197.600 C 34.000 198.260,34.180 198.800,34.400 198.800 C 34.620 198.800,34.800 199.149,34.800 199.576 C 34.800 200.003,34.980 200.464,35.200 200.600 C 35.420 200.736,35.600 201.287,35.600 201.824 C 35.600 202.361,35.780 202.800,36.000 202.800 C 36.220 202.800,36.400 203.145,36.400 203.567 C 36.400 203.988,36.535 204.393,36.700 204.467 C 37.073 204.632,38.373 206.760,38.668 207.687 C 38.788 208.064,39.227 208.482,39.643 208.614 C 40.059 208.746,40.400 209.202,40.400 209.627 C 40.400 210.052,40.580 210.400,40.800 210.400 C 41.020 210.400,41.200 210.683,41.200 211.029 C 41.200 211.825,42.203 212.853,42.616 212.481 C 42.787 212.326,42.820 212.500,42.689 212.867 C 42.549 213.258,42.690 213.626,43.029 213.756 C 43.347 213.878,43.814 214.433,44.068 214.989 C 44.321 215.545,44.780 216.000,45.088 216.000 C 45.395 216.000,45.550 216.157,45.432 216.348 C 45.313 216.540,45.549 217.080,45.955 217.548 C 46.703 218.411,47.455 218.736,47.000 218.000 C 46.864 217.780,46.963 217.600,47.219 217.600 C 47.482 217.600,47.579 217.879,47.441 218.238 C 47.152 218.991,49.920 221.686,50.695 221.407 C 50.968 221.309,51.148 221.378,51.095 221.560 C 50.927 222.147,54.162 224.845,55.314 225.079 C 55.927 225.204,56.340 225.393,56.233 225.500 C 56.019 225.714,56.990 226.800,57.395 226.800 C 57.534 226.800,57.529 226.575,57.383 226.300 C 57.238 226.025,57.657 226.385,58.313 227.100 C 58.969 227.815,59.707 228.400,59.953 228.400 C 60.199 228.400,60.403 228.625,60.406 228.900 C 60.411 229.292,60.479 229.294,60.724 228.909 C 60.954 228.548,61.187 228.627,61.606 229.209 C 61.920 229.644,62.497 230.000,62.888 230.000 C 63.280 230.000,63.600 230.180,63.600 230.400 C 63.600 230.620,63.960 230.800,64.400 230.800 C 64.840 230.800,65.200 230.980,65.200 231.200 C 65.200 231.420,65.560 231.600,66.000 231.600 C 66.440 231.600,66.800 231.791,66.800 232.024 C 66.800 232.257,66.965 232.345,67.168 232.220 C 67.370 232.095,67.807 232.264,68.139 232.596 C 69.085 233.542,71.600 233.400,71.600 232.400 C 71.600 231.960,71.780 231.600,72.000 231.600 C 72.220 231.600,72.400 231.240,72.400 230.800 C 72.400 230.360,72.549 230.000,72.730 230.000 C 72.912 230.000,73.587 228.920,74.230 227.601 C 74.874 226.281,75.535 225.201,75.700 225.201 C 75.865 225.200,76.000 224.930,76.000 224.600 C 76.000 224.270,76.150 224.000,76.332 224.000 C 76.515 224.000,76.920 223.510,77.232 222.911 C 77.545 222.311,78.475 221.120,79.300 220.262 C 80.125 219.405,80.800 218.542,80.800 218.345 C 80.800 218.148,82.155 216.632,83.812 214.975 C 85.525 213.262,86.706 211.772,86.550 211.520 C 86.394 211.267,86.457 211.188,86.698 211.337 C 87.166 211.626,89.600 209.532,89.600 208.840 C 89.600 208.598,89.791 208.400,90.023 208.400 C 90.487 208.400,93.415 206.216,94.447 205.100 C 94.803 204.715,95.271 204.400,95.488 204.400 C 95.704 204.400,96.446 203.860,97.137 203.200 C 97.828 202.540,98.625 202.000,98.908 202.000 C 99.191 202.000,99.683 201.640,100.000 201.200 C 100.317 200.760,100.857 200.400,101.200 200.400 C 101.543 200.400,102.083 200.040,102.400 199.600 C 102.717 199.160,103.297 198.800,103.688 198.800 C 104.080 198.800,104.400 198.620,104.400 198.400 C 104.400 198.180,104.670 198.000,105.000 198.000 C 105.330 198.000,105.600 197.820,105.600 197.600 C 105.600 197.380,105.796 197.200,106.036 197.200 C 106.276 197.200,106.829 196.795,107.266 196.300 C 107.703 195.805,107.947 195.625,107.807 195.900 C 107.667 196.175,107.743 196.400,107.976 196.400 C 108.209 196.400,108.400 196.220,108.400 196.000 C 108.400 195.780,108.700 195.600,109.067 195.600 C 109.433 195.600,109.616 195.483,109.473 195.339 C 109.136 195.003,111.063 194.000,112.046 194.000 C 112.461 194.000,112.801 193.865,112.803 193.700 C 112.805 193.535,113.255 193.192,113.804 192.937 C 114.352 192.683,114.700 192.638,114.577 192.837 C 114.454 193.037,114.543 193.200,114.776 193.200 C 115.009 193.200,115.200 193.020,115.200 192.800 C 115.200 192.580,115.545 192.400,115.967 192.400 C 116.388 192.400,116.793 192.222,116.867 192.003 C 116.940 191.785,117.618 191.535,118.373 191.447 C 119.129 191.360,119.984 190.964,120.273 190.567 C 120.563 190.171,120.800 190.057,120.800 190.314 C 120.800 190.831,123.125 190.545,123.780 189.947 C 123.989 189.756,124.743 189.600,125.456 189.600 C 126.169 189.600,126.864 189.420,127.000 189.200 C 127.136 188.980,128.126 188.800,129.200 188.800 C 130.274 188.800,131.264 188.620,131.400 188.400 C 131.552 188.155,134.796 188.000,139.800 188.000 C 144.804 188.000,148.048 188.155,148.200 188.400 C 148.336 188.620,149.427 188.800,150.624 188.800 C 151.966 188.800,152.800 188.972,152.800 189.249 C 152.800 189.542,153.036 189.507,153.477 189.149 C 153.849 188.847,154.030 188.805,153.880 189.057 C 153.702 189.354,154.090 189.570,154.997 189.676 C 155.762 189.765,156.466 189.649,156.562 189.419 C 156.658 189.189,156.751 189.315,156.768 189.700 C 156.791 190.204,157.136 190.400,158.000 190.400 C 158.660 190.400,159.200 190.550,159.200 190.733 C 159.200 190.917,159.425 191.087,159.700 191.112 C 161.633 191.287,163.600 191.761,163.600 192.053 C 163.600 192.244,163.960 192.400,164.400 192.400 C 164.840 192.400,165.200 192.580,165.200 192.800 C 165.200 193.020,165.391 193.200,165.624 193.200 C 165.857 193.200,165.936 193.020,165.800 192.800 C 165.333 192.044,166.224 192.400,166.800 193.200 C 167.117 193.640,167.787 194.000,168.288 194.000 C 168.790 194.000,169.200 194.180,169.200 194.400 C 169.200 194.620,169.478 194.800,169.817 194.800 C 170.156 194.800,170.813 195.154,171.277 195.586 C 171.741 196.019,172.275 196.277,172.463 196.161 C 172.652 196.044,172.918 196.241,173.054 196.598 C 173.191 196.954,173.557 197.149,173.867 197.030 C 174.177 196.911,174.533 197.080,174.658 197.407 C 174.783 197.733,175.136 198.000,175.443 198.000 C 175.749 198.000,176.000 198.150,176.000 198.332 C 176.000 198.515,176.492 198.920,177.093 199.232 C 177.694 199.545,178.711 200.295,179.352 200.900 C 179.994 201.505,180.690 202.000,180.899 202.000 C 181.108 202.000,181.756 202.499,182.340 203.108 C 182.923 203.717,184.210 204.838,185.200 205.598 C 186.190 206.358,187.115 207.142,187.255 207.341 C 187.396 207.540,187.709 207.580,187.951 207.430 C 188.222 207.263,188.305 207.383,188.166 207.743 C 188.027 208.106,188.256 208.427,188.771 208.591 C 189.227 208.736,189.600 209.120,189.600 209.445 C 189.600 210.300,191.489 212.105,191.739 211.489 C 191.854 211.205,191.950 211.288,191.968 211.687 C 192.049 213.428,195.600 216.081,195.600 214.400 C 195.600 213.960,195.780 213.600,196.000 213.600 C 196.220 213.600,196.400 213.060,196.400 212.400 C 196.400 211.740,196.580 211.200,196.800 211.200 C 197.020 211.200,197.200 210.840,197.200 210.400 C 197.200 209.960,197.380 209.600,197.600 209.600 C 197.820 209.600,198.000 209.060,198.000 208.400 C 198.000 207.740,198.180 207.200,198.400 207.200 C 198.620 207.200,198.800 206.570,198.800 205.800 C 198.800 205.030,198.980 204.400,199.200 204.400 C 199.420 204.400,199.600 203.680,199.600 202.800 C 199.600 201.920,199.780 201.200,200.000 201.200 C 200.220 201.200,200.400 200.221,200.400 199.024 C 200.400 197.827,200.580 196.736,200.800 196.600 C 201.020 196.464,201.200 194.754,201.200 192.800 C 201.200 190.846,201.380 189.136,201.600 189.000 C 202.129 188.673,202.129 179.327,201.600 179.000 C 201.380 178.864,201.200 177.223,201.200 175.353 C 201.200 173.188,201.055 172.043,200.800 172.200 C 200.580 172.336,200.400 172.156,200.400 171.800 C 200.400 171.444,200.580 171.264,200.800 171.400 C 201.020 171.536,201.200 171.457,201.200 171.224 C 201.200 170.991,201.020 170.800,200.800 170.800 C 200.579 170.800,200.387 169.681,200.372 168.300 C 200.352 166.533,200.243 166.035,200.000 166.600 C 199.757 167.167,199.648 166.677,199.628 164.924 C 199.613 163.562,199.420 162.336,199.200 162.200 C 198.980 162.064,198.800 161.153,198.800 160.176 C 198.800 159.199,198.620 158.400,198.400 158.400 C 198.180 158.400,198.000 157.875,198.000 157.233 C 198.000 156.592,197.802 156.001,197.560 155.920 C 197.318 155.839,197.120 155.104,197.120 154.287 C 197.120 153.469,196.958 152.800,196.760 152.800 C 196.562 152.800,196.400 152.296,196.400 151.680 C 196.400 151.064,196.231 150.389,196.025 150.180 C 195.818 149.971,195.576 149.350,195.486 148.800 C 195.301 147.667,194.914 146.523,194.371 145.505 C 194.167 145.123,194.000 144.438,194.000 143.982 C 194.000 143.526,193.820 143.264,193.600 143.400 C 193.364 143.546,193.197 143.103,193.194 142.324 C 193.189 141.322,193.093 141.146,192.800 141.600 C 192.516 142.039,192.411 141.745,192.406 140.500 C 192.403 139.565,192.220 138.800,192.000 138.800 C 191.780 138.800,191.600 138.429,191.600 137.976 C 191.600 137.523,191.459 137.240,191.287 137.347 C 191.114 137.453,190.979 137.059,190.987 136.470 C 190.994 135.882,190.802 135.436,190.559 135.480 C 190.302 135.527,190.193 135.172,190.297 134.627 C 190.395 134.114,190.278 133.572,190.038 133.423 C 189.797 133.275,189.600 132.803,189.600 132.376 C 189.600 131.949,189.420 131.600,189.200 131.600 C 188.980 131.600,188.800 131.240,188.800 130.800 C 188.800 130.360,188.620 130.000,188.400 130.000 C 188.180 130.000,188.000 129.651,188.000 129.224 C 188.000 128.797,187.820 128.336,187.600 128.200 C 187.380 128.064,187.200 127.584,187.200 127.134 C 187.200 126.567,187.014 126.386,186.595 126.547 C 186.121 126.729,186.044 126.565,186.238 125.789 C 186.391 125.183,186.315 124.800,186.043 124.800 C 185.800 124.800,185.600 124.440,185.600 124.000 C 185.600 123.560,185.420 123.200,185.200 123.200 C 184.980 123.200,184.800 122.840,184.800 122.400 C 184.800 121.960,184.639 121.600,184.443 121.600 C 184.246 121.600,183.985 121.338,183.862 121.017 C 183.677 120.535,183.807 120.511,184.619 120.882 C 185.159 121.127,185.600 121.458,185.600 121.616 C 185.600 121.893,188.070 124.446,189.380 125.524 C 189.731 125.812,189.896 126.245,189.747 126.486 C 189.585 126.748,189.661 126.809,189.938 126.638 C 190.192 126.481,190.400 126.568,190.400 126.831 C 190.400 127.093,190.839 127.715,191.375 128.212 C 191.912 128.709,192.235 129.231,192.095 129.372 C 191.954 129.513,192.325 130.079,192.919 130.630 C 193.514 131.181,194.000 131.873,194.000 132.167 C 194.000 132.461,194.273 132.929,194.607 133.206 C 194.941 133.483,195.502 134.315,195.853 135.055 C 196.204 135.795,196.651 136.400,196.846 136.400 C 197.041 136.400,197.200 136.625,197.200 136.900 C 197.201 137.630,199.029 139.637,199.378 139.293 C 199.542 139.132,199.638 139.270,199.591 139.600 C 199.406 140.898,199.628 141.600,200.224 141.600 C 200.567 141.600,200.736 141.780,200.600 142.000 C 200.464 142.220,200.543 142.400,200.776 142.400 C 201.009 142.400,201.203 142.805,201.206 143.300 C 201.211 144.028,201.286 144.085,201.600 143.600 C 201.894 143.145,201.989 143.314,201.994 144.300 C 201.997 145.015,202.180 145.600,202.400 145.600 C 202.620 145.600,202.800 145.960,202.800 146.400 C 202.800 146.840,202.980 147.200,203.200 147.200 C 203.420 147.200,203.600 147.560,203.600 148.000 C 203.600 148.440,203.780 148.800,204.000 148.800 C 204.220 148.800,204.400 149.086,204.400 149.436 C 204.400 149.786,204.805 150.429,205.300 150.866 C 205.795 151.303,205.975 151.547,205.700 151.407 C 204.897 150.999,205.125 151.769,205.991 152.394 C 206.573 152.813,206.652 153.046,206.291 153.276 C 205.906 153.521,205.908 153.589,206.300 153.594 C 206.575 153.597,206.800 153.960,206.800 154.400 C 206.800 154.840,206.980 155.200,207.200 155.200 C 207.420 155.200,207.600 155.661,207.600 156.224 C 207.600 156.804,207.773 157.140,208.000 157.000 C 208.227 156.860,208.400 157.196,208.400 157.776 C 208.400 158.339,208.557 158.800,208.748 158.800 C 208.939 158.800,209.087 159.115,209.075 159.500 C 209.038 160.781,209.675 162.401,210.111 162.132 C 210.377 161.967,210.441 162.117,210.282 162.531 C 210.037 163.169,210.888 166.661,211.637 168.095 C 211.837 168.477,212.000 169.242,212.000 169.795 C 212.000 170.348,212.180 170.800,212.400 170.800 C 212.620 170.800,212.800 171.430,212.800 172.200 C 212.800 172.970,212.980 173.600,213.200 173.600 C 213.420 173.600,213.600 174.305,213.600 175.167 C 213.600 176.028,213.802 176.801,214.048 176.883 C 214.295 176.965,214.486 177.786,214.473 178.708 C 214.461 179.630,214.619 180.488,214.825 180.616 C 215.031 180.743,215.200 181.722,215.200 182.790 C 215.200 183.859,215.366 184.793,215.569 184.867 C 215.773 184.940,215.980 186.080,216.031 187.400 C 216.081 188.720,216.280 190.005,216.473 190.255 C 216.665 190.505,216.836 192.530,216.851 194.755 C 216.867 196.980,217.042 198.800,217.240 198.800 C 217.444 198.800,217.600 203.058,217.600 208.600 C 217.600 214.867,217.456 218.400,217.200 218.400 C 216.621 218.400,216.707 219.896,217.300 220.135 C 217.700 220.296,217.700 220.343,217.300 220.368 C 216.942 220.391,216.800 221.364,216.800 223.800 C 216.800 225.800,216.635 227.200,216.400 227.200 C 216.180 227.200,216.000 227.391,216.000 227.624 C 216.000 227.857,216.225 227.920,216.500 227.765 C 216.900 227.539,216.900 227.590,216.500 228.021 C 216.219 228.324,216.000 229.578,216.000 230.880 C 216.000 232.160,215.821 233.200,215.600 233.200 C 215.379 233.200,215.200 234.240,215.200 235.520 C 215.200 236.796,215.002 238.038,214.761 238.279 C 214.510 238.530,214.381 239.660,214.461 240.909 C 214.564 242.540,214.472 243.051,214.100 242.907 C 213.745 242.770,213.600 243.242,213.600 244.534 C 213.600 245.534,213.403 246.475,213.162 246.624 C 212.921 246.773,212.791 247.475,212.874 248.184 C 212.958 248.905,212.798 249.686,212.512 249.953 C 212.231 250.216,212.000 251.134,212.000 251.992 C 212.000 252.851,211.820 253.664,211.600 253.800 C 211.380 253.936,211.200 254.667,211.200 255.424 C 211.200 256.181,211.044 256.800,210.853 256.800 C 210.662 256.800,210.402 257.475,210.277 258.300 C 209.990 260.185,209.766 261.135,209.312 262.400 C 209.115 262.950,208.985 263.805,209.022 264.300 C 209.060 264.795,208.974 265.200,208.830 265.200 C 208.687 265.200,208.526 265.785,208.473 266.500 C 208.363 267.958,207.564 270.000,207.102 270.000 C 206.936 270.000,206.800 270.540,206.800 271.200 C 206.800 271.860,206.620 272.400,206.400 272.400 C 206.180 272.400,206.000 272.940,206.000 273.600 C 206.000 274.290,205.788 274.803,205.500 274.806 C 205.167 274.810,205.200 274.942,205.600 275.200 C 205.930 275.413,205.996 275.591,205.747 275.594 C 205.287 275.600,204.776 276.754,204.598 278.183 C 204.545 278.614,204.298 279.034,204.051 279.116 C 203.803 279.199,203.600 279.532,203.600 279.857 C 203.600 280.182,203.793 280.328,204.030 280.182 C 204.266 280.036,204.222 280.295,203.933 280.758 C 203.644 281.221,203.271 281.600,203.104 281.600 C 202.937 281.600,202.800 281.949,202.800 282.376 C 202.800 282.803,202.620 283.264,202.400 283.400 C 202.180 283.536,202.000 284.087,202.000 284.624 C 202.000 285.161,201.820 285.600,201.600 285.600 C 201.380 285.600,201.200 285.791,201.200 286.024 C 201.200 286.257,201.381 286.335,201.603 286.198 C 201.836 286.054,201.809 286.381,201.539 286.975 C 201.282 287.539,200.920 288.000,200.736 288.000 C 200.551 288.000,200.400 288.349,200.400 288.776 C 200.400 289.203,200.220 289.664,200.000 289.800 C 199.780 289.936,199.600 290.487,199.600 291.024 C 199.600 291.561,199.420 292.000,199.200 292.000 C 198.980 292.000,198.800 292.191,198.800 292.424 C 198.800 292.657,199.025 292.731,199.300 292.589 C 199.575 292.447,199.426 292.661,198.970 293.065 C 198.513 293.469,197.899 294.565,197.606 295.500 C 197.312 296.435,196.921 297.200,196.736 297.200 C 196.551 297.200,196.400 297.472,196.400 297.805 C 196.400 298.138,196.220 298.768,196.000 299.205 C 195.780 299.642,195.420 300.358,195.200 300.795 C 194.980 301.232,194.800 301.862,194.800 302.195 C 194.800 302.528,194.620 302.800,194.400 302.800 C 194.180 302.800,194.000 303.160,194.000 303.600 C 194.000 304.040,193.775 304.403,193.500 304.406 C 193.108 304.411,193.110 304.482,193.509 304.736 C 193.900 304.983,193.836 305.224,193.236 305.767 C 192.806 306.157,192.551 306.728,192.670 307.038 C 192.789 307.349,192.644 307.603,192.343 307.606 C 191.897 307.611,191.900 307.676,192.359 307.966 C 192.810 308.252,192.752 308.423,192.059 308.856 C 191.586 309.151,191.200 309.709,191.200 310.096 C 191.200 310.483,191.020 310.800,190.800 310.800 C 190.580 310.800,190.400 311.160,190.400 311.600 C 190.400 312.040,190.220 312.400,190.000 312.400 C 189.780 312.400,189.600 312.850,189.600 313.400 C 189.600 313.950,189.420 314.400,189.200 314.400 C 188.980 314.400,188.800 314.760,188.800 315.200 C 188.800 315.640,188.620 316.000,188.400 316.000 C 188.180 316.000,188.000 316.360,188.000 316.800 C 188.000 317.240,187.820 317.600,187.600 317.600 C 187.380 317.600,187.200 317.878,187.200 318.217 C 187.200 318.556,186.840 319.220,186.400 319.692 C 185.960 320.164,185.600 320.787,185.600 321.075 C 185.600 321.364,185.420 321.600,185.200 321.600 C 184.980 321.600,184.800 321.960,184.800 322.400 C 184.800 322.840,184.620 323.200,184.400 323.200 C 184.180 323.200,184.000 323.560,184.000 324.000 C 184.000 324.440,183.854 324.800,183.675 324.800 C 183.496 324.800,183.102 325.430,182.800 326.200 C 182.498 326.970,182.083 327.600,181.879 327.600 C 181.674 327.600,181.598 327.948,181.709 328.374 C 181.826 328.822,181.677 329.238,181.356 329.362 C 181.050 329.479,180.800 329.768,180.800 330.004 C 180.800 330.240,180.431 330.830,179.979 331.315 C 179.527 331.799,179.241 332.512,179.341 332.898 C 179.442 333.283,179.334 333.717,179.101 333.861 C 178.851 334.016,178.794 333.933,178.962 333.662 C 179.119 333.408,179.057 333.200,178.824 333.200 C 178.591 333.200,178.400 333.560,178.400 334.000 C 178.400 334.440,178.220 334.800,178.000 334.800 C 177.780 334.800,177.600 335.147,177.600 335.571 C 177.600 335.996,177.330 336.613,177.000 336.943 C 176.670 337.273,176.400 337.826,176.400 338.171 C 176.400 338.517,176.175 338.803,175.900 338.806 C 175.510 338.811,175.513 338.884,175.913 339.138 C 176.294 339.380,176.140 339.710,175.307 340.431 C 174.692 340.964,173.921 341.940,173.594 342.600 C 173.268 343.260,172.685 344.149,172.300 344.575 C 171.915 345.002,171.600 345.587,171.600 345.875 C 171.600 346.164,171.420 346.400,171.200 346.400 C 170.980 346.400,170.800 346.591,170.800 346.824 C 170.800 347.057,171.025 347.129,171.300 346.983 C 171.575 346.838,171.215 347.257,170.500 347.913 C 169.761 348.591,169.200 349.500,169.200 350.019 C 169.200 350.522,169.089 350.822,168.952 350.686 C 168.644 350.378,167.600 351.383,167.600 351.988 C 167.600 352.233,167.240 352.820,166.800 353.292 C 166.360 353.764,166.000 354.387,166.000 354.675 C 166.000 354.964,165.849 355.200,165.664 355.200 C 165.196 355.200,164.340 357.180,164.616 357.625 C 164.740 357.826,164.603 357.899,164.310 357.787 C 163.982 357.661,163.272 358.420,162.451 359.775 C 161.721 360.980,160.870 362.176,160.561 362.432 C 160.253 362.688,160.000 363.193,160.000 363.553 C 160.000 363.913,159.640 364.432,159.200 364.707 C 158.760 364.982,158.400 365.493,158.400 365.843 C 158.400 366.193,157.860 366.983,157.200 367.600 C 156.540 368.217,156.000 369.009,156.000 369.360 C 156.000 369.712,155.809 370.000,155.576 370.000 C 155.343 370.000,155.264 370.180,155.400 370.400 C 155.536 370.620,155.397 370.800,155.091 370.800 C 154.785 370.800,154.281 371.295,153.970 371.900 C 153.660 372.505,153.089 373.291,152.703 373.647 C 152.316 374.003,152.000 374.460,152.000 374.664 C 152.000 374.867,151.415 375.669,150.700 376.445 C 148.521 378.811,147.622 380.112,147.879 380.528 C 148.013 380.745,147.930 380.804,147.692 380.657 C 147.455 380.511,146.846 380.978,146.339 381.695 C 145.832 382.413,145.053 383.396,144.609 383.881 C 142.864 385.781,142.730 385.998,143.284 386.027 C 143.568 386.042,143.395 386.249,142.900 386.488 C 142.405 386.727,142.000 387.165,142.000 387.461 C 142.000 387.758,141.820 388.000,141.600 388.000 C 140.758 388.000,141.143 392.728,142.072 393.797 C 142.991 394.854,148.800 395.375,148.800 394.400 C 148.800 394.180,149.171 394.000,149.624 394.000 C 150.077 394.000,150.336 393.820,150.200 393.600 C 150.049 393.356,150.663 393.200,151.776 393.200 C 152.779 393.200,153.600 393.020,153.600 392.800 C 153.600 392.580,153.881 392.400,154.224 392.400 C 154.567 392.400,154.736 392.220,154.600 392.000 C 154.464 391.780,154.543 391.600,154.776 391.600 C 155.009 391.600,155.200 391.802,155.200 392.049 C 155.200 392.357,155.357 392.371,155.700 392.094 C 155.975 391.872,156.965 391.564,157.900 391.410 C 158.835 391.256,159.600 390.966,159.600 390.765 C 159.600 390.564,160.140 390.400,160.800 390.400 C 161.530 390.400,162.000 390.192,162.000 389.869 C 162.000 389.507,162.381 389.394,163.200 389.515 C 163.920 389.620,164.400 389.513,164.400 389.245 C 164.400 389.000,164.839 388.800,165.376 388.800 C 165.913 388.800,166.464 388.620,166.600 388.400 C 166.736 388.180,167.276 388.000,167.800 388.000 C 168.324 388.000,168.864 387.820,169.000 387.600 C 169.136 387.380,169.575 387.200,169.975 387.200 C 170.375 387.200,170.917 386.941,171.180 386.624 C 171.443 386.307,171.897 386.139,172.189 386.251 C 172.480 386.363,172.838 386.262,172.983 386.027 C 173.128 385.792,173.609 385.600,174.052 385.600 C 174.495 385.600,175.129 385.328,175.461 384.996 C 175.793 384.664,176.230 384.495,176.432 384.620 C 176.635 384.745,176.803 384.612,176.806 384.324 C 176.811 383.943,176.918 383.964,177.200 384.400 C 177.458 384.800,177.590 384.833,177.594 384.500 C 177.597 384.225,178.039 384.000,178.576 384.000 C 179.113 384.000,179.664 383.820,179.800 383.600 C 179.936 383.380,180.397 383.200,180.824 383.200 C 181.251 383.200,181.600 383.020,181.600 382.800 C 181.600 382.580,182.063 382.400,182.629 382.400 C 183.194 382.400,183.919 382.138,184.240 381.817 C 184.561 381.496,185.083 381.334,185.401 381.456 C 185.719 381.578,186.269 381.389,186.622 381.035 C 186.975 380.682,187.418 380.487,187.605 380.603 C 187.792 380.718,188.058 380.630,188.196 380.407 C 188.334 380.183,188.887 380.000,189.424 380.000 C 189.961 380.000,190.400 379.820,190.400 379.600 C 190.400 379.380,190.850 379.200,191.400 379.200 C 191.950 379.200,192.400 379.020,192.400 378.800 C 192.400 378.580,192.940 378.400,193.600 378.400 C 194.260 378.400,194.800 378.220,194.800 378.000 C 194.800 377.780,195.171 377.600,195.624 377.600 C 196.077 377.600,196.336 377.420,196.200 377.200 C 196.060 376.973,196.396 376.800,196.976 376.800 C 197.539 376.800,198.000 376.620,198.000 376.400 C 198.000 376.180,198.619 376.000,199.376 376.000 C 200.133 376.000,200.854 375.836,200.978 375.635 C 201.103 375.434,201.936 375.146,202.830 374.995 C 203.993 374.798,204.394 374.561,204.240 374.160 C 204.122 373.852,204.199 373.600,204.413 373.600 C 204.626 373.600,204.800 373.758,204.800 373.950 C 204.800 374.325,208.452 373.197,208.817 372.710 C 208.937 372.551,209.427 372.360,209.907 372.287 C 210.387 372.214,210.904 372.029,211.056 371.877 C 211.209 371.725,211.663 371.600,212.067 371.600 C 212.470 371.600,212.800 371.420,212.800 371.200 C 212.800 370.980,213.340 370.800,214.000 370.800 C 214.660 370.800,215.200 370.620,215.200 370.400 C 215.200 370.180,215.549 370.000,215.976 370.000 C 216.403 370.000,216.864 369.820,217.000 369.600 C 217.136 369.380,217.687 369.200,218.224 369.200 C 218.761 369.200,219.200 369.020,219.200 368.800 C 219.200 368.580,219.639 368.400,220.176 368.400 C 220.713 368.400,221.264 368.220,221.400 368.000 C 221.536 367.780,221.997 367.600,222.424 367.600 C 222.851 367.600,223.200 367.420,223.200 367.200 C 223.200 366.980,223.695 366.797,224.300 366.794 C 225.157 366.789,225.268 366.702,224.800 366.400 C 224.345 366.106,224.514 366.011,225.500 366.006 C 226.215 366.003,226.800 365.820,226.800 365.600 C 226.800 365.380,227.340 365.200,228.000 365.200 C 228.660 365.200,229.200 365.020,229.200 364.800 C 229.200 364.580,229.560 364.400,230.000 364.400 C 230.440 364.400,230.800 364.220,230.800 364.000 C 230.800 363.780,231.160 363.600,231.600 363.600 C 232.040 363.600,232.403 363.375,232.406 363.100 C 232.410 362.767,232.542 362.800,232.800 363.200 C 233.058 363.600,233.190 363.633,233.194 363.300 C 233.197 363.025,233.549 362.800,233.976 362.800 C 234.403 362.800,234.864 362.620,235.000 362.400 C 235.136 362.180,235.687 362.000,236.224 362.000 C 236.761 362.000,237.200 361.820,237.200 361.600 C 237.200 361.380,237.434 361.200,237.720 361.200 C 238.480 361.200,240.393 360.254,240.397 359.876 C 240.399 359.698,240.560 359.651,240.755 359.772 C 240.950 359.893,241.332 359.723,241.604 359.396 C 241.876 359.068,242.503 358.800,242.999 358.800 C 244.946 358.800,246.447 358.300,246.227 357.725 C 246.100 357.395,246.184 357.266,246.427 357.417 C 246.927 357.726,250.400 356.760,250.400 356.313 C 250.400 356.141,250.679 356.000,251.019 356.000 C 251.360 356.000,252.384 355.640,253.294 355.200 C 254.205 354.760,255.192 354.400,255.488 354.400 C 255.783 354.400,256.128 354.131,256.254 353.802 C 256.381 353.474,256.662 353.315,256.880 353.449 C 257.292 353.704,259.035 352.943,259.893 352.136 C 260.164 351.880,260.749 351.766,261.193 351.882 C 261.647 352.001,262.000 351.898,262.000 351.647 C 262.000 351.401,262.360 351.200,262.800 351.200 C 263.240 351.200,263.600 351.020,263.600 350.800 C 263.600 350.580,264.039 350.400,264.576 350.400 C 265.113 350.400,265.664 350.220,265.800 350.000 C 265.936 349.780,266.397 349.600,266.824 349.600 C 267.251 349.600,267.600 349.420,267.600 349.200 C 267.600 348.980,267.960 348.800,268.400 348.800 C 268.840 348.800,269.200 348.620,269.200 348.400 C 269.200 348.180,269.650 348.000,270.200 348.000 C 270.750 348.000,271.200 347.820,271.200 347.600 C 271.200 347.380,271.476 347.200,271.814 347.200 C 272.152 347.200,272.872 346.909,273.414 346.554 C 273.956 346.199,274.400 346.053,274.400 346.230 C 274.400 346.408,274.655 346.204,274.967 345.777 C 275.279 345.350,275.671 345.138,275.838 345.304 C 276.004 345.471,276.588 345.201,277.135 344.704 C 277.682 344.207,277.999 344.025,277.841 344.300 C 277.358 345.138,278.172 344.856,278.707 344.000 C 279.026 343.490,279.640 343.200,280.403 343.200 C 281.062 343.200,281.600 343.020,281.600 342.800 C 281.600 342.580,281.960 342.400,282.400 342.400 C 282.840 342.400,283.200 342.220,283.200 342.000 C 283.200 341.780,283.659 341.600,284.220 341.600 C 284.781 341.600,285.816 341.293,286.520 340.917 C 287.224 340.541,287.890 340.218,288.000 340.200 C 288.661 340.089,290.761 338.735,290.932 338.308 C 291.092 337.910,291.144 337.915,291.168 338.329 C 291.192 338.728,291.355 338.703,291.832 338.225 C 292.180 337.877,292.630 337.695,292.832 337.820 C 293.035 337.945,293.200 337.857,293.200 337.624 C 293.200 337.391,293.560 337.200,294.000 337.200 C 294.440 337.200,294.800 337.020,294.800 336.800 C 294.800 336.580,295.160 336.400,295.600 336.400 C 296.040 336.400,296.400 336.220,296.400 336.000 C 296.400 335.780,296.760 335.600,297.200 335.600 C 297.640 335.600,298.000 335.420,298.000 335.200 C 298.000 334.980,298.360 334.800,298.800 334.800 C 299.240 334.800,299.600 334.620,299.600 334.400 C 299.600 334.180,299.960 334.000,300.400 334.000 C 300.840 334.000,301.200 333.820,301.200 333.600 C 301.200 333.380,301.560 333.200,302.000 333.200 C 302.440 333.200,302.800 333.020,302.800 332.800 C 302.800 332.580,303.160 332.400,303.600 332.400 C 304.040 332.400,304.401 332.265,304.403 332.100 C 304.407 331.735,306.349 330.800,307.103 330.800 C 307.402 330.800,307.536 330.620,307.400 330.400 C 307.264 330.180,307.523 330.000,307.976 330.000 C 308.429 330.000,308.800 329.820,308.800 329.600 C 308.800 329.380,309.120 329.200,309.512 329.200 C 309.903 329.200,310.483 328.840,310.800 328.400 C 311.139 327.930,311.835 327.600,312.488 327.600 C 313.100 327.600,313.600 327.441,313.600 327.247 C 313.600 327.052,313.978 326.794,314.440 326.674 C 314.902 326.553,315.163 326.264,315.019 326.032 C 314.855 325.766,315.013 325.707,315.445 325.873 C 315.911 326.051,316.038 325.985,315.842 325.668 C 315.658 325.371,315.842 325.200,316.344 325.200 C 317.605 325.200,318.398 324.766,318.432 324.057 C 318.452 323.638,318.537 323.582,318.666 323.902 C 318.848 324.354,320.771 323.631,321.600 322.799 C 321.710 322.689,322.340 322.330,323.000 322.002 C 323.660 321.674,324.491 321.089,324.847 320.703 C 325.203 320.316,325.788 320.000,326.147 320.000 C 326.506 320.000,326.800 319.820,326.800 319.600 C 326.800 319.380,327.120 319.200,327.512 319.200 C 327.903 319.200,328.483 318.840,328.800 318.400 C 329.117 317.960,329.657 317.600,330.000 317.600 C 330.343 317.600,330.883 317.240,331.200 316.800 C 331.517 316.360,332.097 316.000,332.488 316.000 C 332.880 316.000,333.200 315.864,333.200 315.698 C 333.200 315.531,333.741 315.156,334.402 314.863 C 335.064 314.570,335.503 314.166,335.379 313.965 C 335.254 313.764,335.489 313.600,335.901 313.600 C 336.312 313.600,337.036 313.240,337.508 312.800 C 337.980 312.360,338.554 312.000,338.783 312.000 C 339.012 312.000,339.200 311.820,339.200 311.600 C 339.200 311.380,339.470 311.200,339.800 311.200 C 340.130 311.200,340.400 311.050,340.400 310.868 C 340.400 310.685,340.844 310.298,341.386 310.007 C 341.929 309.717,342.287 309.341,342.183 309.172 C 342.078 309.003,342.499 308.754,343.118 308.618 C 343.736 308.482,344.950 307.760,345.815 307.012 C 346.679 306.265,347.454 305.721,347.536 305.803 C 347.618 305.884,348.124 305.512,348.661 304.976 C 349.197 304.439,349.802 304.000,350.005 304.000 C 350.208 304.000,351.003 303.370,351.773 302.600 C 352.543 301.830,353.348 301.200,353.561 301.200 C 353.774 301.200,354.950 300.198,356.174 298.974 C 357.398 297.750,358.400 296.852,358.400 296.980 C 358.400 297.108,359.753 295.860,361.406 294.206 C 363.060 292.553,364.554 291.200,364.727 291.200 C 365.047 291.200,368.389 287.874,372.767 283.200 C 376.618 279.088,376.800 278.863,376.800 278.214 C 376.800 277.876,376.980 277.600,377.200 277.600 C 377.420 277.600,377.600 277.319,377.600 276.976 C 377.600 276.633,377.735 276.435,377.900 276.534 C 378.065 276.634,378.420 276.478,378.688 276.187 C 379.073 275.771,379.073 275.617,378.688 275.461 C 378.420 275.352,378.616 275.249,379.124 275.232 C 379.632 275.214,379.955 275.051,379.843 274.870 C 379.731 274.688,380.260 273.953,381.019 273.237 C 381.779 272.521,382.400 271.680,382.400 271.368 C 382.400 271.055,382.599 270.800,382.843 270.800 C 383.086 270.800,383.186 270.539,383.063 270.220 C 382.915 269.833,383.033 269.715,383.420 269.863 C 383.800 270.009,384.000 269.826,384.000 269.331 C 384.000 268.916,384.360 268.317,384.800 268.000 C 385.240 267.683,385.600 267.186,385.600 266.895 C 385.600 266.604,385.960 265.980,386.400 265.508 C 386.840 265.036,387.200 264.413,387.200 264.125 C 387.200 263.836,387.380 263.600,387.600 263.600 C 387.820 263.600,388.000 263.139,388.000 262.576 C 388.000 262.013,388.150 261.646,388.334 261.759 C 388.518 261.873,388.971 261.331,389.341 260.555 C 389.711 259.779,389.831 259.258,389.607 259.396 C 389.383 259.534,389.200 259.457,389.200 259.224 C 389.200 258.991,389.489 258.800,389.843 258.800 C 390.244 258.800,390.401 258.579,390.260 258.213 C 390.136 257.890,390.235 257.502,390.479 257.351 C 390.767 257.173,390.810 257.261,390.600 257.600 C 390.394 257.933,390.433 258.027,390.707 257.857 C 390.944 257.711,391.257 257.053,391.401 256.395 C 391.545 255.738,391.829 255.200,392.032 255.200 C 392.234 255.200,392.400 254.750,392.400 254.200 C 392.400 253.650,392.580 253.200,392.800 253.200 C 393.020 253.200,393.200 252.750,393.200 252.200 C 393.200 251.650,393.380 251.200,393.600 251.200 C 393.820 251.200,394.000 250.840,394.000 250.400 C 394.000 249.960,394.180 249.600,394.400 249.600 C 394.620 249.600,394.800 248.959,394.800 248.176 C 394.800 247.329,394.962 246.853,395.200 247.000 C 395.433 247.144,395.600 246.737,395.600 246.024 C 395.600 245.351,395.780 244.800,396.000 244.800 C 396.220 244.800,396.400 244.260,396.400 243.600 C 396.400 242.940,396.580 242.400,396.800 242.400 C 397.020 242.400,397.200 241.860,397.200 241.200 C 397.200 240.540,397.380 240.000,397.600 240.000 C 397.820 240.000,398.000 239.381,398.000 238.624 C 398.000 237.867,398.180 237.136,398.400 237.000 C 398.997 236.631,398.899 235.497,398.300 235.835 C 397.900 236.061,397.900 236.010,398.300 235.579 C 398.575 235.282,398.800 234.641,398.800 234.153 C 398.800 233.666,399.025 233.192,399.300 233.100 C 399.690 232.970,399.800 229.111,399.800 215.600 C 399.800 202.089,399.690 198.230,399.300 198.100 C 398.990 197.997,398.800 197.184,398.800 195.967 C 398.800 194.885,398.620 194.000,398.400 194.000 C 398.180 194.000,398.000 193.190,398.000 192.200 C 398.000 191.210,397.820 190.400,397.600 190.400 C 397.380 190.400,397.200 189.865,397.200 189.212 C 397.200 188.559,396.836 187.375,396.390 186.582 C 395.945 185.789,395.765 185.255,395.990 185.394 C 396.216 185.533,396.400 185.457,396.400 185.224 C 396.400 184.991,396.220 184.800,396.000 184.800 C 395.780 184.800,395.600 184.260,395.600 183.600 C 395.600 182.940,395.420 182.400,395.200 182.400 C 394.980 182.400,394.800 181.871,394.800 181.224 C 394.800 180.577,394.620 179.936,394.400 179.800 C 394.180 179.664,394.000 179.113,394.000 178.576 C 394.000 178.039,393.820 177.600,393.600 177.600 C 393.380 177.600,393.200 177.150,393.200 176.600 C 393.200 176.050,393.020 175.600,392.800 175.600 C 392.580 175.600,392.400 175.330,392.400 175.000 C 392.400 174.670,392.175 174.397,391.900 174.394 C 391.566 174.390,391.599 174.257,392.000 173.994 C 392.473 173.683,392.492 173.530,392.091 173.271 C 391.810 173.089,391.495 172.549,391.391 172.071 C 391.286 171.592,391.119 170.831,391.019 170.379 C 390.919 169.928,390.559 169.000,390.219 168.318 C 389.879 167.635,389.600 166.815,389.600 166.496 C 389.600 166.173,389.361 166.006,389.062 166.121 C 388.677 166.268,388.577 166.054,388.709 165.363 C 388.815 164.811,388.703 164.400,388.447 164.400 C 388.201 164.400,388.000 164.051,388.000 163.624 C 388.000 163.197,387.820 162.736,387.600 162.600 C 387.380 162.464,387.200 162.003,387.200 161.576 C 387.200 161.149,387.020 160.800,386.800 160.800 C 386.580 160.800,386.400 160.440,386.400 160.000 C 386.400 159.560,386.220 159.200,386.000 159.200 C 385.780 159.200,385.600 158.924,385.600 158.587 C 385.600 158.251,385.341 157.876,385.025 157.754 C 384.709 157.633,384.550 157.273,384.673 156.955 C 384.795 156.637,384.513 156.045,384.047 155.641 C 383.581 155.237,383.200 154.612,383.200 154.253 C 383.200 153.894,383.020 153.600,382.800 153.600 C 382.580 153.600,382.400 153.322,382.400 152.982 C 382.400 151.840,380.690 150.557,379.198 150.579 L 377.800 150.600 377.600 158.000 C 377.490 162.070,377.254 165.625,377.076 165.900 C 376.896 166.179,376.925 166.400,377.143 166.400 C 377.358 166.400,377.624 166.175,377.735 165.900 C 377.854 165.606,377.950 165.694,377.968 166.113 C 377.986 166.504,377.752 166.920,377.449 167.036 C 377.067 167.183,376.918 167.884,376.962 169.324 C 377.001 170.589,376.818 171.614,376.494 171.948 C 376.201 172.249,376.070 172.604,376.203 172.736 C 376.335 172.868,376.611 172.712,376.816 172.388 C 377.020 172.065,377.191 172.003,377.194 172.251 C 377.197 172.499,376.947 172.912,376.638 173.168 C 376.329 173.425,376.121 173.942,376.176 174.317 C 376.231 174.692,376.043 175.556,375.759 176.236 C 375.475 176.917,375.343 177.862,375.468 178.337 C 375.599 178.840,375.507 179.200,375.247 179.200 C 374.973 179.200,374.789 180.090,374.772 181.500 C 374.752 183.155,374.647 183.576,374.400 183.000 C 374.148 182.413,374.041 182.785,374.000 184.400 C 373.959 186.015,373.852 186.387,373.600 185.800 C 373.335 185.183,373.250 185.394,373.228 186.724 C 373.211 187.765,373.042 188.349,372.800 188.200 C 372.580 188.064,372.400 188.313,372.400 188.753 C 372.400 189.193,372.220 189.664,372.000 189.800 C 371.780 189.936,371.600 190.487,371.600 191.024 C 371.600 191.561,371.401 192.000,371.157 192.000 C 370.914 192.000,370.816 192.265,370.940 192.588 C 371.064 192.912,370.886 193.457,370.544 193.799 C 370.202 194.141,370.018 194.671,370.136 194.977 C 370.253 195.283,370.091 195.633,369.775 195.754 C 369.459 195.876,369.200 196.431,369.200 196.987 C 369.200 197.544,369.012 198.000,368.782 198.000 C 368.553 198.000,368.394 198.225,368.430 198.500 C 368.619 199.956,368.351 201.017,368.000 200.200 C 367.672 199.437,367.655 199.441,367.628 200.300 C 367.613 200.795,367.420 201.200,367.200 201.200 C 366.980 201.200,366.800 201.560,366.800 202.000 C 366.800 202.440,366.620 202.800,366.400 202.800 C 366.180 202.800,366.000 203.160,366.000 203.600 C 366.000 204.040,365.820 204.400,365.600 204.400 C 365.380 204.400,365.200 204.681,365.200 205.024 C 365.200 205.393,365.388 205.531,365.662 205.362 C 365.948 205.185,366.015 205.252,365.838 205.538 C 365.681 205.792,365.293 206.000,364.976 206.000 C 364.625 206.000,364.400 206.399,364.400 207.024 C 364.400 207.604,364.227 207.940,364.000 207.800 C 363.780 207.664,363.600 207.923,363.600 208.376 C 363.600 208.829,363.390 209.200,363.133 209.200 C 362.877 209.200,362.787 209.320,362.934 209.468 C 363.081 209.615,362.946 210.020,362.632 210.368 C 362.319 210.715,362.004 211.270,361.932 211.600 C 361.859 211.930,361.499 212.425,361.132 212.700 C 360.764 212.976,360.345 213.741,360.200 214.400 C 360.055 215.060,359.771 215.600,359.568 215.600 C 359.366 215.600,359.200 215.855,359.200 216.167 C 359.200 216.478,358.975 216.824,358.700 216.935 C 358.327 217.086,358.338 217.145,358.742 217.168 C 359.056 217.187,358.761 217.689,358.042 218.360 C 357.359 218.999,356.800 219.769,356.800 220.072 C 356.800 220.375,356.440 220.883,356.000 221.200 C 355.560 221.517,355.200 222.097,355.200 222.488 C 355.200 222.880,355.020 223.200,354.800 223.200 C 354.580 223.200,354.400 223.560,354.400 224.000 C 354.400 224.440,354.265 224.779,354.100 224.753 C 353.251 224.619,352.777 224.860,352.882 225.374 C 352.947 225.689,352.846 225.947,352.659 225.945 C 352.188 225.943,350.444 228.529,350.667 228.900 C 350.766 229.065,350.633 229.200,350.370 229.200 C 349.853 229.200,348.001 231.185,348.000 231.740 C 348.000 231.926,347.446 232.596,346.770 233.228 C 346.044 233.906,345.659 234.572,345.831 234.851 C 346.010 235.140,345.952 235.218,345.681 235.050 C 345.420 234.889,344.859 235.440,344.319 236.385 C 343.813 237.270,343.145 237.995,342.833 237.997 C 342.522 237.999,342.378 238.111,342.514 238.248 C 342.650 238.384,342.499 238.758,342.177 239.080 C 341.856 239.401,341.712 239.858,341.858 240.094 C 342.015 240.349,341.936 240.407,341.662 240.238 C 341.388 240.069,341.200 240.207,341.200 240.576 C 341.200 240.919,340.917 241.200,340.571 241.200 C 339.899 241.200,338.800 242.120,338.800 242.683 C 338.800 242.870,338.450 243.276,338.021 243.585 C 337.593 243.893,337.334 244.293,337.445 244.473 C 337.556 244.653,337.454 244.800,337.219 244.800 C 336.660 244.800,328.400 253.060,328.400 253.619 C 328.400 253.854,328.253 253.956,328.073 253.845 C 327.893 253.734,327.493 253.993,327.185 254.421 C 326.876 254.850,326.477 255.200,326.298 255.200 C 325.674 255.200,323.200 257.979,323.194 258.687 C 323.190 259.149,323.083 259.236,322.892 258.935 C 322.687 258.614,322.204 258.820,321.330 259.600 C 320.634 260.222,320.170 260.837,320.299 260.966 C 320.428 261.095,320.261 261.200,319.928 261.200 C 319.595 261.200,318.907 261.560,318.400 262.000 C 317.893 262.440,317.325 262.800,317.139 262.800 C 316.952 262.800,316.800 262.991,316.800 263.224 C 316.800 263.457,317.008 263.519,317.262 263.362 C 317.550 263.184,317.615 263.252,317.434 263.545 C 317.275 263.802,316.968 263.904,316.751 263.770 C 316.535 263.636,316.031 263.903,315.632 264.363 C 315.233 264.823,314.702 265.200,314.453 265.200 C 314.204 265.200,314.000 265.380,314.000 265.600 C 314.000 265.820,313.822 266.000,313.603 266.000 C 313.385 266.000,312.691 266.540,312.060 267.200 C 311.429 267.860,310.785 268.400,310.628 268.400 C 310.207 268.400,309.393 269.299,309.090 270.100 C 308.944 270.485,308.549 270.800,308.213 270.800 C 307.876 270.800,307.600 270.980,307.600 271.200 C 307.600 271.420,307.312 271.600,306.960 271.600 C 306.609 271.600,305.817 272.140,305.200 272.800 C 304.583 273.460,303.781 274.000,303.416 274.000 C 303.051 274.000,302.864 274.180,303.000 274.400 C 303.136 274.620,302.994 274.800,302.686 274.800 C 302.377 274.800,301.813 275.144,301.433 275.564 C 301.052 275.984,300.288 276.442,299.734 276.581 C 299.049 276.753,298.801 277.026,298.959 277.438 C 299.087 277.770,299.020 277.936,298.812 277.807 C 298.377 277.539,296.752 278.362,296.287 279.087 C 296.115 279.355,295.350 279.871,294.587 280.233 C 293.824 280.595,293.200 281.051,293.200 281.246 C 293.200 281.441,292.970 281.600,292.688 281.600 C 292.407 281.600,291.917 281.960,291.600 282.400 C 291.283 282.840,290.658 283.203,290.212 283.206 C 289.541 283.211,289.504 283.280,290.000 283.600 C 290.485 283.914,290.428 283.989,289.700 283.994 C 289.205 283.997,288.800 284.180,288.800 284.400 C 288.800 284.620,288.429 284.800,287.976 284.800 C 287.523 284.800,287.264 284.980,287.400 285.200 C 287.540 285.427,287.204 285.600,286.624 285.600 C 285.275 285.600,285.300 285.527,287.400 283.335 C 288.390 282.302,289.200 281.337,289.200 281.190 C 289.200 281.043,289.571 280.490,290.024 279.961 C 290.478 279.433,291.187 278.606,291.600 278.125 C 292.122 277.517,292.206 277.191,291.875 277.057 C 291.614 276.950,291.728 276.849,292.129 276.832 C 292.847 276.800,294.000 275.912,294.000 275.389 C 294.000 275.242,294.502 274.644,295.115 274.060 C 296.624 272.626,298.034 270.567,297.722 270.255 C 297.581 270.115,297.685 270.000,297.952 270.000 C 298.646 270.000,300.400 268.151,300.400 267.418 C 300.400 267.078,300.567 266.800,300.772 266.800 C 300.977 266.800,301.202 266.395,301.272 265.900 C 301.351 265.343,301.641 265.039,302.031 265.102 C 302.382 265.158,302.914 264.714,303.229 264.102 C 303.540 263.496,304.083 262.730,304.434 262.400 C 304.786 262.070,305.307 261.361,305.591 260.825 C 305.876 260.289,306.266 259.659,306.459 259.425 C 308.273 257.226,309.146 255.836,308.932 255.491 C 308.784 255.251,308.871 255.197,309.138 255.362 C 309.399 255.523,309.600 255.415,309.600 255.112 C 309.600 254.817,309.960 254.317,310.400 254.000 C 310.840 253.683,311.200 253.143,311.200 252.800 C 311.200 252.457,311.560 251.917,312.000 251.600 C 312.440 251.283,312.800 250.769,312.800 250.459 C 312.800 250.148,313.189 249.557,313.664 249.144 C 314.139 248.732,314.421 248.287,314.289 248.155 C 314.157 248.024,314.488 247.509,315.025 247.012 C 315.561 246.515,316.000 245.854,316.000 245.542 C 316.000 245.231,316.360 244.717,316.800 244.400 C 317.240 244.083,317.600 243.569,317.600 243.259 C 317.600 242.948,317.924 242.403,318.320 242.047 C 319.108 241.340,320.624 238.399,320.474 237.870 C 320.422 237.689,320.566 237.655,320.793 237.796 C 321.020 237.936,321.326 237.724,321.474 237.325 C 321.621 236.926,321.845 236.510,321.971 236.400 C 322.499 235.939,324.024 232.799,323.726 232.788 C 323.547 232.781,323.719 232.590,324.108 232.363 C 324.498 232.136,324.714 231.784,324.588 231.581 C 324.462 231.377,324.722 230.821,325.166 230.345 C 325.609 229.868,325.877 229.325,325.761 229.137 C 325.644 228.948,325.831 228.686,326.175 228.554 C 326.519 228.422,326.800 228.143,326.800 227.934 C 326.800 227.724,326.637 227.654,326.437 227.777 C 326.238 227.900,326.281 227.564,326.533 227.031 C 326.839 226.382,327.089 226.216,327.289 226.530 C 327.472 226.818,327.590 226.651,327.594 226.100 C 327.597 225.605,327.746 225.200,327.925 225.200 C 328.104 225.200,328.498 224.570,328.800 223.800 C 329.102 223.030,329.496 222.400,329.675 222.400 C 329.854 222.400,330.013 221.725,330.028 220.900 C 330.051 219.697,330.124 219.558,330.400 220.200 C 330.728 220.963,330.745 220.959,330.772 220.100 C 330.787 219.605,330.980 219.200,331.200 219.200 C 331.420 219.200,331.600 218.840,331.600 218.400 C 331.600 217.960,331.780 217.600,332.000 217.600 C 332.220 217.600,332.400 217.240,332.400 216.800 C 332.400 216.360,332.580 216.000,332.800 216.000 C 333.020 216.000,333.200 215.651,333.200 215.224 C 333.200 214.797,333.380 214.336,333.600 214.200 C 333.820 214.064,334.000 213.513,334.000 212.976 C 334.000 212.439,334.180 212.000,334.400 212.000 C 334.620 212.000,334.800 211.640,334.800 211.200 C 334.800 210.760,334.980 210.400,335.200 210.400 C 335.420 210.400,335.600 210.040,335.600 209.600 C 335.600 209.160,335.780 208.800,336.000 208.800 C 336.220 208.800,336.400 208.445,336.400 208.012 C 336.400 207.579,336.760 206.583,337.200 205.800 C 337.640 205.017,338.000 204.021,338.000 203.588 C 338.000 203.155,338.180 202.800,338.400 202.800 C 338.620 202.800,338.800 202.462,338.800 202.049 C 338.800 201.636,339.054 200.691,339.364 199.949 C 339.674 199.207,339.960 198.420,340.000 198.200 C 340.040 197.980,340.297 197.260,340.571 196.600 C 341.373 194.668,341.688 193.098,341.216 193.390 C 340.987 193.532,340.800 193.457,340.800 193.224 C 340.800 192.991,340.980 192.800,341.200 192.800 C 341.420 192.800,341.600 192.440,341.600 192.000 C 341.600 191.560,341.780 191.200,342.000 191.200 C 342.220 191.200,342.400 190.660,342.400 190.000 C 342.400 189.340,342.580 188.800,342.800 188.800 C 343.020 188.800,343.200 188.080,343.200 187.200 C 343.200 186.320,343.380 185.600,343.600 185.600 C 343.820 185.600,344.000 185.409,344.000 185.176 C 344.000 184.943,343.820 184.864,343.600 185.000 C 343.380 185.136,343.200 185.057,343.200 184.824 C 343.200 184.591,343.380 184.400,343.600 184.400 C 343.820 184.400,344.000 183.950,344.000 183.400 C 344.000 182.850,344.180 182.400,344.400 182.400 C 344.620 182.400,344.800 181.500,344.800 180.400 C 344.800 179.300,344.980 178.400,345.200 178.400 C 345.420 178.400,345.600 177.421,345.600 176.224 C 345.600 175.027,345.780 173.936,346.000 173.800 C 346.220 173.664,346.400 172.213,346.400 170.576 C 346.400 168.939,346.570 167.600,346.777 167.600 C 347.346 167.600,347.335 148.931,346.765 148.579 C 346.444 148.380,346.470 148.191,346.857 147.920 C 347.279 147.624,347.289 147.494,346.900 147.336 C 346.571 147.203,346.398 146.220,346.394 144.467 C 346.390 142.597,346.272 141.979,346.000 142.400 C 345.727 142.823,345.610 142.266,345.606 140.512 C 345.602 138.775,345.359 137.595,344.800 136.600 C 343.905 135.007,343.813 134.637,344.400 135.000 C 344.620 135.136,344.800 135.067,344.800 134.847 C 344.800 134.627,344.620 134.336,344.400 134.200 C 344.180 134.064,344.000 133.423,344.000 132.776 C 344.000 132.129,343.820 131.600,343.600 131.600 C 343.380 131.600,343.200 131.060,343.200 130.400 C 343.200 129.740,343.020 129.200,342.800 129.200 C 342.580 129.200,342.387 128.615,342.372 127.900 C 342.348 126.811,342.288 126.730,342.000 127.400 C 341.728 128.034,341.650 127.874,341.628 126.631 C 341.612 125.745,341.296 124.715,340.900 124.263 C 340.393 123.683,340.365 123.553,340.800 123.790 C 341.288 124.056,341.306 124.017,340.900 123.579 C 340.625 123.282,340.400 122.716,340.400 122.320 C 340.400 121.924,340.220 121.600,340.000 121.600 C 339.780 121.600,339.600 121.240,339.600 120.800 C 339.600 120.360,339.420 120.000,339.200 120.000 C 338.980 120.000,338.800 119.640,338.800 119.200 C 338.800 118.760,338.620 118.400,338.400 118.400 C 338.180 118.400,338.000 118.040,338.000 117.600 C 338.000 117.160,337.820 116.800,337.600 116.800 C 337.380 116.800,337.200 116.440,337.200 116.000 C 337.200 115.560,337.020 115.200,336.800 115.200 C 336.580 115.200,336.400 114.901,336.400 114.536 C 336.400 114.170,335.815 113.334,335.100 112.677 C 334.385 112.019,334.025 111.609,334.300 111.764 C 334.575 111.920,334.800 111.857,334.800 111.624 C 334.800 111.391,334.519 111.200,334.176 111.200 C 333.833 111.200,333.663 111.022,333.797 110.805 C 333.931 110.588,333.672 110.014,333.220 109.530 C 332.769 109.045,332.400 108.485,332.400 108.285 C 332.400 108.085,331.860 107.417,331.200 106.800 C 330.540 106.183,330.000 105.467,330.000 105.208 C 330.000 104.949,329.235 104.000,328.300 103.098 C 327.365 102.197,326.645 101.311,326.700 101.130 C 326.755 100.948,326.519 100.800,326.176 100.800 C 325.833 100.800,325.660 100.626,325.792 100.414 C 326.172 99.798,324.013 97.626,323.259 97.866 C 322.783 98.017,322.741 97.974,323.106 97.710 C 323.671 97.303,317.672 91.200,316.707 91.200 C 316.415 91.200,315.917 90.840,315.600 90.400 C 315.283 89.960,314.787 89.600,314.499 89.600 C 314.211 89.600,313.856 89.285,313.710 88.900 C 313.346 87.940,312.566 87.200,311.917 87.200 C 311.620 87.200,311.124 86.850,310.815 86.421 C 310.507 85.993,310.107 85.734,309.927 85.845 C 309.747 85.956,309.600 85.767,309.600 85.424 C 309.600 84.681,308.554 84.584,308.265 85.300 C 308.104 85.700,308.057 85.700,308.032 85.300 C 307.973 84.377,305.200 84.671,305.200 85.600 C 305.200 86.040,305.020 86.400,304.800 86.400 C 304.580 86.400,304.400 86.940,304.400 87.600 C 304.400 88.260,304.580 88.800,304.800 88.800 C 305.020 88.800,305.200 89.070,305.200 89.400 C 305.200 89.730,305.425 90.003,305.700 90.006 C 306.068 90.011,306.057 90.103,305.657 90.356 C 305.279 90.596,305.249 90.783,305.557 90.974 C 305.801 91.124,306.000 91.687,306.000 92.224 C 306.000 92.761,306.180 93.200,306.400 93.200 C 306.620 93.200,306.800 93.740,306.800 94.400 C 306.800 95.060,306.980 95.600,307.200 95.600 C 307.420 95.600,307.600 95.960,307.600 96.400 C 307.600 96.840,307.780 97.200,308.000 97.200 C 308.220 97.200,308.400 97.391,308.400 97.624 C 308.400 97.857,308.220 97.936,308.000 97.800 C 307.780 97.664,307.600 97.833,307.600 98.176 C 307.600 98.519,307.757 98.800,307.948 98.800 C 308.261 98.800,308.610 100.515,308.954 103.738 C 309.021 104.364,309.245 104.994,309.451 105.138 C 309.658 105.282,309.809 105.670,309.788 106.000 C 309.767 106.330,310.031 106.957,310.375 107.393 C 310.943 108.114,310.943 108.142,310.367 107.700 C 309.707 107.193,309.488 108.422,310.125 109.059 C 310.276 109.210,310.400 110.395,310.400 111.693 C 310.400 112.991,310.572 114.374,310.782 114.766 C 311.192 115.532,311.564 138.192,311.156 137.529 C 310.745 136.863,310.400 138.340,310.400 140.766 C 310.400 142.031,310.271 143.196,310.113 143.354 C 309.955 143.511,309.817 144.396,309.806 145.320 C 309.795 146.244,309.644 147.225,309.469 147.500 C 309.295 147.775,309.281 148.208,309.438 148.462 C 309.607 148.735,309.549 148.816,309.295 148.659 C 309.014 148.485,308.904 148.878,308.977 149.797 C 309.038 150.569,308.934 151.200,308.744 151.200 C 308.555 151.200,308.400 151.920,308.400 152.800 C 308.400 153.680,308.220 154.400,308.000 154.400 C 307.780 154.400,307.600 155.120,307.600 156.000 C 307.600 156.880,307.420 157.600,307.200 157.600 C 306.980 157.600,306.800 158.039,306.800 158.576 C 306.800 159.113,306.620 159.664,306.400 159.800 C 306.180 159.936,306.000 160.587,306.000 161.247 C 306.000 161.945,305.833 162.344,305.600 162.200 C 305.380 162.064,305.200 162.128,305.200 162.343 C 305.200 162.558,305.425 162.824,305.700 162.935 C 306.100 163.096,306.100 163.143,305.700 163.168 C 305.425 163.186,305.200 163.470,305.200 163.800 C 305.200 164.130,305.020 164.400,304.800 164.400 C 304.580 164.400,304.400 164.940,304.400 165.600 C 304.400 166.260,304.220 166.800,304.000 166.800 C 303.780 166.800,303.600 167.239,303.600 167.776 C 303.600 168.313,303.420 168.864,303.200 169.000 C 302.980 169.136,302.800 169.597,302.800 170.024 C 302.800 170.451,302.620 170.800,302.400 170.800 C 302.180 170.800,302.000 170.991,302.000 171.224 C 302.000 171.457,302.225 171.518,302.500 171.359 C 302.775 171.201,302.598 171.513,302.107 172.054 C 301.562 172.653,301.281 173.380,301.384 173.918 C 301.482 174.428,301.353 174.801,301.077 174.803 C 300.579 174.806,299.600 176.580,299.600 177.480 C 299.600 177.766,299.465 178.001,299.300 178.001 C 299.135 178.002,298.550 178.992,298.000 180.200 C 297.450 181.408,296.865 182.398,296.700 182.399 C 296.535 182.399,296.400 182.760,296.400 183.200 C 296.400 183.640,296.220 184.000,296.000 184.000 C 295.780 184.000,295.600 184.360,295.600 184.800 C 295.600 185.240,295.420 185.600,295.200 185.600 C 294.980 185.600,294.800 185.960,294.800 186.400 C 294.800 186.840,294.620 187.200,294.400 187.200 C 294.180 187.200,294.000 187.547,294.000 187.971 C 294.000 188.396,293.730 189.013,293.400 189.343 C 293.070 189.673,292.800 190.143,292.800 190.388 C 292.800 190.633,292.469 191.189,292.064 191.623 C 291.659 192.058,291.074 192.905,290.765 193.507 C 290.455 194.108,290.021 194.732,289.801 194.894 C 289.563 195.068,289.644 195.201,290.000 195.219 C 290.348 195.237,290.222 195.403,289.700 195.612 C 289.205 195.811,288.800 196.250,288.800 196.587 C 288.800 196.924,288.650 197.200,288.468 197.200 C 288.285 197.200,287.880 197.695,287.568 198.300 C 286.603 200.170,284.800 201.277,284.800 200.000 C 284.800 199.780,284.980 199.600,285.200 199.600 C 285.420 199.600,285.600 198.891,285.600 198.024 C 285.600 197.157,285.744 196.358,285.920 196.249 C 286.096 196.140,286.285 195.275,286.340 194.326 C 286.395 193.377,286.611 192.540,286.820 192.467 C 287.029 192.393,287.200 191.369,287.200 190.190 C 287.200 189.012,287.388 187.931,287.618 187.789 C 287.848 187.647,287.996 186.642,287.946 185.557 C 287.896 184.454,288.064 183.376,288.328 183.112 C 288.597 182.843,288.800 181.482,288.800 179.944 C 288.800 178.461,288.980 177.136,289.200 177.000 C 289.420 176.864,289.600 176.483,289.600 176.153 C 289.600 175.823,289.420 175.664,289.200 175.800 C 288.980 175.936,288.800 175.857,288.800 175.624 C 288.800 175.391,288.967 175.200,289.172 175.200 C 290.029 175.200,290.749 151.157,289.915 150.379 C 289.552 150.040,289.422 148.734,289.473 145.942 C 289.517 143.577,289.396 142.079,289.173 142.217 C 288.756 142.474,288.707 142.018,288.796 138.700 C 288.833 137.294,288.690 136.400,288.428 136.400 C 288.182 136.400,288.000 135.562,288.000 134.424 C 288.000 133.337,287.820 132.336,287.600 132.200 C 287.380 132.064,287.200 131.243,287.200 130.376 C 287.200 129.509,287.020 128.800,286.800 128.800 C 286.580 128.800,286.400 128.095,286.400 127.233 C 286.400 126.372,286.190 125.597,285.932 125.511 C 285.673 125.424,285.489 124.696,285.520 123.877 C 285.551 123.065,285.401 122.400,285.188 122.400 C 284.975 122.400,284.800 121.860,284.800 121.200 C 284.800 120.540,284.620 120.000,284.400 120.000 C 284.180 120.000,284.000 119.460,284.000 118.800 C 284.000 118.140,283.820 117.600,283.600 117.600 C 283.380 117.600,283.200 117.060,283.200 116.400 C 283.200 115.740,283.020 115.200,282.800 115.200 C 282.580 115.200,282.400 114.845,282.400 114.412 C 282.400 113.979,282.040 112.983,281.600 112.200 C 281.160 111.417,280.800 110.421,280.800 109.988 C 280.800 109.555,280.620 109.200,280.400 109.200 C 280.180 109.200,280.000 108.880,280.000 108.488 C 280.000 108.097,279.644 107.520,279.209 107.206 C 278.627 106.787,278.548 106.554,278.909 106.324 C 279.294 106.079,279.292 106.011,278.900 106.006 C 278.625 106.003,278.400 105.629,278.400 105.176 C 278.400 104.723,278.220 104.464,278.000 104.600 C 277.780 104.736,277.600 104.567,277.600 104.224 C 277.600 103.881,277.375 103.597,277.100 103.594 C 276.767 103.590,276.800 103.458,277.200 103.200 C 277.600 102.942,277.633 102.810,277.300 102.806 C 277.025 102.803,276.800 102.440,276.800 102.000 C 276.800 101.560,276.620 101.200,276.400 101.200 C 276.180 101.200,276.000 100.840,276.000 100.400 C 276.000 99.960,275.843 99.600,275.650 99.600 C 275.457 99.600,275.195 99.076,275.067 98.435 C 274.939 97.794,274.106 96.081,273.217 94.628 C 272.328 93.175,271.600 91.849,271.600 91.681 C 271.600 91.514,271.240 91.117,270.800 90.800 C 270.360 90.483,270.000 89.943,270.000 89.600 C 270.000 89.257,269.640 88.717,269.200 88.400 C 268.760 88.083,268.400 87.543,268.400 87.200 C 268.400 86.857,268.040 86.317,267.600 86.000 C 267.160 85.683,266.800 85.191,266.800 84.908 C 266.800 84.266,264.430 81.764,263.951 81.900 C 263.758 81.955,263.600 81.820,263.600 81.600 C 263.600 81.380,263.799 81.200,264.042 81.200 C 264.286 81.200,263.971 80.705,263.342 80.100 C 262.714 79.495,261.943 78.502,261.628 77.892 C 261.218 77.097,260.966 76.928,260.734 77.292 C 260.514 77.639,260.410 77.523,260.406 76.927 C 260.402 76.409,260.075 75.951,259.600 75.800 C 259.160 75.660,258.800 75.250,258.800 74.887 C 258.800 74.525,258.440 73.862,258.000 73.414 C 255.383 70.750,252.778 67.816,251.951 66.603 C 251.080 65.323,249.958 64.543,250.653 65.700 C 250.857 66.040,250.737 66.024,250.277 65.651 C 249.544 65.057,249.349 64.598,250.000 65.000 C 250.830 65.513,250.350 64.724,249.028 63.402 C 248.160 62.533,247.585 62.208,247.460 62.515 C 247.326 62.845,247.253 62.818,247.232 62.432 C 247.191 61.706,242.870 57.600,242.146 57.600 C 241.846 57.600,241.600 57.458,241.600 57.285 C 241.600 56.487,237.647 52.807,237.040 53.040 C 236.679 53.179,236.400 53.082,236.400 52.819 C 236.400 52.563,236.625 52.462,236.900 52.595 C 237.175 52.728,236.958 52.514,236.417 52.119 C 235.876 51.723,234.838 50.806,234.111 50.080 C 233.383 49.354,232.623 48.862,232.421 48.987 C 232.220 49.111,231.925 49.002,231.766 48.745 C 231.585 48.452,231.650 48.384,231.938 48.562 C 232.192 48.719,232.400 48.687,232.400 48.491 C 232.400 48.295,231.905 47.881,231.300 47.570 C 230.695 47.260,229.895 46.673,229.521 46.266 C 229.148 45.859,228.655 45.642,228.426 45.784 C 228.184 45.933,228.100 45.804,228.225 45.478 C 228.364 45.117,228.002 44.732,227.221 44.409 C 226.052 43.925,225.560 43.200,226.400 43.200 C 226.620 43.200,226.800 42.761,226.800 42.224 C 226.800 41.687,226.980 41.136,227.200 41.000 C 227.420 40.864,227.600 40.234,227.600 39.600 C 227.600 38.966,227.780 38.336,228.000 38.200 C 228.220 38.064,228.400 37.423,228.400 36.776 C 228.400 36.129,228.580 35.600,228.800 35.600 C 229.020 35.600,229.200 35.060,229.200 34.400 C 229.200 33.740,229.380 33.200,229.600 33.200 C 229.820 33.200,230.000 32.480,230.000 31.600 C 230.000 30.720,230.180 30.000,230.400 30.000 C 230.620 30.000,230.800 29.460,230.800 28.800 C 230.800 28.140,230.980 27.600,231.200 27.600 C 231.420 27.600,231.600 27.071,231.600 26.424 C 231.600 25.777,231.780 25.136,232.000 25.000 C 232.220 24.864,232.400 24.133,232.400 23.376 C 232.400 22.619,232.580 22.000,232.800 22.000 C 233.020 22.000,233.200 21.561,233.200 21.024 C 233.200 20.487,233.368 19.943,233.573 19.817 C 233.778 19.690,233.930 19.014,233.910 18.314 C 233.890 17.614,234.082 16.973,234.337 16.888 C 234.592 16.803,234.800 16.208,234.800 15.567 C 234.800 14.925,234.980 14.400,235.200 14.400 C 235.420 14.400,235.600 13.680,235.600 12.800 C 235.600 11.895,235.793 11.200,236.044 11.200 C 236.316 11.200,236.424 10.654,236.323 9.787 C 236.205 8.780,236.300 8.429,236.652 8.565 C 236.930 8.671,237.134 8.458,237.118 8.077 C 237.102 7.705,237.223 6.905,237.388 6.300 L 237.687 5.200 217.443 5.200 C 204.214 5.200,197.200 5.339,197.200 5.600 M133.375 68.521 C 133.265 68.808,132.637 69.360,131.980 69.748 C 131.323 70.136,130.882 70.609,130.999 70.799 C 131.117 70.989,131.002 71.275,130.745 71.434 C 130.452 71.615,130.384 71.550,130.562 71.262 C 130.719 71.008,130.699 70.800,130.519 70.800 C 130.146 70.800,128.600 72.754,128.600 73.225 C 128.600 73.395,128.436 73.683,128.236 73.867 C 128.024 74.060,127.992 73.990,128.159 73.700 C 128.752 72.671,127.769 73.249,127.016 74.373 C 126.585 75.016,126.099 75.461,125.936 75.360 C 125.773 75.260,125.448 75.536,125.214 75.974 C 124.980 76.412,123.936 77.346,122.894 78.050 C 121.852 78.754,120.915 79.400,120.812 79.487 C 120.708 79.573,120.888 79.831,121.212 80.059 C 121.697 80.403,121.678 80.436,121.100 80.250 C 120.715 80.126,120.400 80.199,120.400 80.413 C 120.400 80.626,120.207 80.800,119.971 80.800 C 119.262 80.800,118.328 81.960,118.636 82.459 C 118.814 82.747,118.749 82.816,118.465 82.640 C 117.974 82.337,116.000 84.070,116.000 84.805 C 116.000 85.048,115.853 85.156,115.673 85.045 C 115.493 84.934,115.093 85.193,114.785 85.621 C 114.476 86.050,113.993 86.400,113.712 86.400 C 113.430 86.400,113.200 86.538,113.200 86.707 C 113.200 86.876,112.705 87.341,112.100 87.740 C 111.495 88.139,111.315 88.366,111.700 88.245 C 112.085 88.124,112.400 88.134,112.400 88.266 C 112.400 88.649,110.244 90.399,109.772 90.400 C 109.537 90.400,108.953 90.850,108.475 91.400 C 107.997 91.950,107.424 92.400,107.203 92.400 C 106.981 92.400,106.800 92.681,106.800 93.024 C 106.800 93.367,106.620 93.536,106.400 93.400 C 106.180 93.264,106.000 93.305,106.000 93.490 C 106.000 93.676,105.457 94.148,104.793 94.541 C 104.129 94.933,103.704 95.445,103.849 95.679 C 103.997 95.918,103.881 96.027,103.582 95.927 C 103.292 95.831,101.455 97.337,99.502 99.276 C 97.549 101.214,95.771 102.800,95.552 102.800 C 95.332 102.800,95.264 102.980,95.400 103.200 C 95.536 103.420,95.394 103.600,95.086 103.600 C 94.293 103.600,93.066 105.059,93.401 105.602 C 93.565 105.868,93.453 106.001,93.127 105.927 C 92.823 105.857,91.914 106.430,91.109 107.200 C 88.280 109.903,87.800 110.163,87.800 108.995 C 87.800 108.484,87.960 108.097,88.155 108.133 C 88.718 108.239,89.198 106.072,88.660 105.852 C 88.395 105.743,88.457 105.650,88.806 105.632 C 89.461 105.597,90.528 103.428,91.289 100.584 C 91.551 99.603,91.909 98.800,92.083 98.800 C 92.257 98.800,92.397 98.485,92.394 98.100 C 92.389 97.502,92.331 97.487,92.000 98.000 C 91.756 98.377,91.610 98.419,91.606 98.114 C 91.603 97.847,91.960 97.435,92.400 97.200 C 92.868 96.950,93.200 96.362,93.200 95.786 C 93.200 95.244,93.380 94.800,93.600 94.800 C 93.820 94.800,94.000 94.440,94.000 94.000 C 94.000 93.560,94.180 93.200,94.400 93.200 C 94.620 93.200,94.800 92.523,94.800 91.696 C 94.800 90.626,95.030 90.049,95.600 89.693 C 96.052 89.410,96.400 88.760,96.400 88.197 C 96.400 87.648,96.599 87.200,96.843 87.200 C 97.086 87.200,97.179 86.923,97.050 86.585 C 96.915 86.235,97.069 85.872,97.407 85.742 C 97.742 85.613,98.000 85.011,98.000 84.357 C 98.000 83.721,98.180 83.200,98.400 83.200 C 98.620 83.200,98.800 82.840,98.800 82.400 C 98.800 81.960,98.980 81.600,99.200 81.600 C 99.420 81.600,99.600 81.240,99.600 80.800 C 99.600 80.360,99.780 80.000,100.000 80.000 C 100.220 80.000,100.400 79.640,100.400 79.200 C 100.400 78.760,100.625 78.386,100.900 78.368 C 101.295 78.343,101.294 78.294,100.895 78.133 C 100.558 77.998,100.790 77.557,101.595 76.805 C 102.258 76.186,102.803 75.346,102.806 74.940 C 102.811 74.316,102.873 74.294,103.200 74.800 C 103.413 75.130,103.592 75.220,103.597 75.000 C 103.601 74.780,104.232 74.174,104.997 73.652 C 105.762 73.131,106.273 72.518,106.132 72.291 C 105.992 72.063,106.058 71.989,106.280 72.126 C 106.712 72.393,109.247 71.607,109.632 71.086 C 109.760 70.913,110.886 70.759,112.134 70.744 C 113.383 70.729,114.504 70.556,114.626 70.359 C 114.747 70.161,116.331 70.000,118.144 70.000 C 119.957 70.000,121.626 69.814,121.854 69.586 C 122.082 69.358,123.603 69.148,125.234 69.119 C 126.865 69.090,128.385 68.927,128.612 68.757 C 128.839 68.587,130.009 68.380,131.212 68.298 C 132.415 68.215,133.439 68.115,133.487 68.074 C 133.536 68.033,133.485 68.235,133.375 68.521 " stroke="none" fill="#fc6c04" fill-rule="evenodd"></path><path id="path1" d="M110.867 89.196 C 110.174 89.858,109.741 90.400,109.904 90.400 C 110.374 90.399,112.551 88.418,112.328 88.194 C 112.217 88.084,111.559 88.534,110.867 89.196 M377.260 166.266 C 376.962 166.589,376.830 166.964,376.966 167.100 C 377.301 167.434,378.127 166.570,377.945 166.074 C 377.865 165.856,377.557 165.942,377.260 166.266 " stroke="none" fill="#fc7404" fill-rule="evenodd"></path></g></svg>