<?xml version="1.0" standalone="no"?><!DOCTYPE svg PUBLIC "-//W3C//DTD SVG 1.1//EN" "http://www.w3.org/Graphics/SVG/1.1/DTD/svg11.dtd"><svg t="1622278978218" class="icon" viewBox="0 0 1024 1024" version="1.1" xmlns="http://www.w3.org/2000/svg" p-id="1203" xmlns:xlink="http://www.w3.org/1999/xlink" width="200" height="200"><defs><style type="text/css"></style></defs><path d="M512 896.211c-212.116 0-384.211-172.095-384.211-384.211S299.884 127.789 512 127.789 896.211 299.884 896.211 512 724.116 896.211 512 896.211zM761.137 407.943l-45.525-45.025c-6.003-6.003-14.007-9.505-22.512-9.505s-16.51 3.502-22.513 9.505L466.475 566.53 353.413 453.468c-6.003-6.003-14.008-9.505-22.513-9.505-8.504 0-16.509 3.501-22.512 9.505l-45.525 45.024c-6.003 6.004-9.005 14.509-9.005 23.013 0 8.505 3.001 16.51 9.005 22.513l181.1 181.1c6.003 6.003 14.508 9.505 22.512 9.505 8.504 0 17.009-3.502 23.013-9.505l271.649-271.649c6.003-6.003 9.005-14.008 9.005-22.512C770.142 422.451 767.14 413.946 761.137 407.943z" p-id="1204" fill="#1afa29"></path></svg>